<svg width="134" height="24" viewBox="0 0 134 24" fill="none" xmlns="http://www.w3.org/2000/svg">
<path d="M20.5 15.8002V8.20016C20.4995 7.86751 20.4122 7.54074 20.2466 7.25221C20.081 6.96369 19.843 6.72341 19.556 6.55516L12.944 2.75516C12.6572 2.58867 12.3316 2.50098 12 2.50098C11.6684 2.50098 11.3427 2.58867 11.056 2.75516L4.44399 6.55516C4.156 6.72226 3.91711 6.96228 3.75139 7.25107C3.58567 7.53985 3.49896 7.86721 3.49999 8.20016V15.8022C3.50064 16.1347 3.58807 16.4612 3.75363 16.7495C3.9192 17.0379 4.15716 17.278 4.44399 17.4462L11.056 21.2462C11.3427 21.4127 11.6684 21.5004 12 21.5004C12.3316 21.5004 12.6572 21.4127 12.944 21.2462L19.556 17.4462C19.8441 17.279 20.0831 17.0388 20.2488 16.7498C20.4146 16.4609 20.5012 16.1333 20.5 15.8002Z" stroke="#EBE5FC" stroke-width="1.5" stroke-linecap="round" stroke-linejoin="round"/>
<path d="M12 6V12L16 14" stroke="#EBE5FC" stroke-width="1.5" stroke-linecap="round" stroke-linejoin="round"/>
<path d="M30.017 17.5H27.3807L31.3977 5.86364H34.5682L38.5795 17.5H35.9432L33.0284 8.52273H32.9375L30.017 17.5ZM29.8523 12.9261H36.0795V14.8466H29.8523V12.9261ZM46.9929 11.2614L44.777 11.3977C44.7391 11.2083 44.6577 11.0379 44.5327 10.8864C44.4077 10.7311 44.2429 10.608 44.0384 10.517C43.8376 10.4223 43.5971 10.375 43.3168 10.375C42.9418 10.375 42.6255 10.4545 42.3679 10.6136C42.1103 10.7689 41.9815 10.9773 41.9815 11.2386C41.9815 11.447 42.0649 11.6231 42.2315 11.767C42.3982 11.911 42.6842 12.0265 43.0895 12.1136L44.669 12.4318C45.5175 12.6061 46.1501 12.8864 46.5668 13.2727C46.9834 13.6591 47.1918 14.1667 47.1918 14.7955C47.1918 15.3674 47.0232 15.8693 46.6861 16.3011C46.3527 16.733 45.8944 17.0701 45.3111 17.3125C44.7315 17.5511 44.063 17.6705 43.3054 17.6705C42.1501 17.6705 41.2296 17.4299 40.544 16.9489C39.8622 16.464 39.4626 15.8049 39.3452 14.9716L41.7259 14.8466C41.7978 15.1989 41.9721 15.4678 42.2486 15.6534C42.5251 15.8352 42.8793 15.9261 43.3111 15.9261C43.7353 15.9261 44.0762 15.8447 44.3338 15.6818C44.5952 15.5152 44.7277 15.3011 44.7315 15.0398C44.7277 14.8201 44.6349 14.6402 44.4531 14.5C44.2713 14.3561 43.991 14.2462 43.6122 14.1705L42.1009 13.8693C41.2486 13.6989 40.6141 13.4034 40.1974 12.983C39.7846 12.5625 39.5781 12.0265 39.5781 11.375C39.5781 10.8144 39.7296 10.3314 40.0327 9.92614C40.3395 9.52083 40.7694 9.20833 41.3224 8.98864C41.8793 8.76894 42.5308 8.65909 43.277 8.65909C44.3793 8.65909 45.2467 8.89205 45.8793 9.35795C46.5156 9.82386 46.8868 10.4583 46.9929 11.2614ZM48.7159 17.5V8.77273H51.1364V17.5H48.7159ZM49.9318 7.64773C49.572 7.64773 49.2633 7.52841 49.0057 7.28977C48.7519 7.04735 48.625 6.75758 48.625 6.42045C48.625 6.08712 48.7519 5.80114 49.0057 5.5625C49.2633 5.32008 49.572 5.19886 49.9318 5.19886C50.2917 5.19886 50.5985 5.32008 50.8523 5.5625C51.1098 5.80114 51.2386 6.08712 51.2386 6.42045C51.2386 6.75758 51.1098 7.04735 50.8523 7.28977C50.5985 7.52841 50.2917 7.64773 49.9318 7.64773ZM57.0071 20.9545C56.223 20.9545 55.5507 20.8466 54.9901 20.6307C54.4332 20.4186 53.9901 20.1288 53.6605 19.7614C53.331 19.3939 53.117 18.9811 53.0185 18.5227L55.2571 18.2216C55.3253 18.3958 55.4332 18.5587 55.581 18.7102C55.7287 18.8617 55.9238 18.983 56.1662 19.0739C56.4124 19.1686 56.7116 19.2159 57.0639 19.2159C57.5904 19.2159 58.0241 19.0871 58.3651 18.8295C58.7098 18.5758 58.8821 18.1496 58.8821 17.5511V15.9545H58.7798C58.6738 16.197 58.5147 16.4261 58.3026 16.642C58.0904 16.858 57.8177 17.0341 57.4844 17.1705C57.151 17.3068 56.7533 17.375 56.2912 17.375C55.6359 17.375 55.0393 17.2235 54.5014 16.9205C53.9673 16.6136 53.5412 16.1458 53.223 15.517C52.9086 14.8845 52.7514 14.0852 52.7514 13.1193C52.7514 12.1307 52.9124 11.3049 53.2344 10.642C53.5563 9.97917 53.9844 9.48295 54.5185 9.15341C55.0563 8.82386 55.6454 8.65909 56.2855 8.65909C56.7741 8.65909 57.1832 8.74242 57.5128 8.90909C57.8423 9.07197 58.1075 9.27652 58.3082 9.52273C58.5128 9.76515 58.67 10.0038 58.7798 10.2386H58.8707V8.77273H61.2741V17.5852C61.2741 18.3277 61.0923 18.9489 60.7287 19.4489C60.3651 19.9489 59.8613 20.3239 59.2173 20.5739C58.5772 20.8277 57.8404 20.9545 57.0071 20.9545ZM57.0582 15.5568C57.4484 15.5568 57.7779 15.4602 58.0469 15.267C58.3196 15.0701 58.5279 14.7898 58.6719 14.4261C58.8196 14.0587 58.8935 13.6193 58.8935 13.108C58.8935 12.5966 58.8215 12.1534 58.6776 11.7784C58.5336 11.3996 58.3253 11.1061 58.0526 10.8977C57.7798 10.6894 57.4484 10.5852 57.0582 10.5852C56.6605 10.5852 56.3253 10.6932 56.0526 10.9091C55.7798 11.1212 55.5734 11.4167 55.4332 11.7955C55.2931 12.1742 55.223 12.6117 55.223 13.108C55.223 13.6117 55.2931 14.0473 55.4332 14.4148C55.5772 14.7784 55.7836 15.0606 56.0526 15.2614C56.3253 15.4583 56.6605 15.5568 57.0582 15.5568ZM65.6207 12.4545V17.5H63.2003V8.77273H65.5071V10.3125H65.6094C65.8026 9.80492 66.1264 9.40341 66.581 9.10795C67.0355 8.80871 67.5866 8.65909 68.2344 8.65909C68.8404 8.65909 69.3688 8.79167 69.8196 9.05682C70.2704 9.32197 70.6207 9.70076 70.8707 10.1932C71.1207 10.6818 71.2457 11.2652 71.2457 11.9432V17.5H68.8253V12.375C68.8291 11.8409 68.6927 11.4242 68.4162 11.125C68.1397 10.822 67.759 10.6705 67.2741 10.6705C66.9484 10.6705 66.6605 10.7405 66.4105 10.8807C66.1643 11.0208 65.9711 11.2254 65.831 11.4943C65.6946 11.7595 65.6245 12.0795 65.6207 12.4545ZM75.642 17.6648C75.0852 17.6648 74.589 17.5682 74.1534 17.375C73.7178 17.178 73.3731 16.8883 73.1193 16.5057C72.8693 16.1193 72.7443 15.6383 72.7443 15.0625C72.7443 14.5777 72.8333 14.1705 73.0114 13.8409C73.1894 13.5114 73.4318 13.2462 73.7386 13.0455C74.0455 12.8447 74.3939 12.6932 74.7841 12.5909C75.178 12.4886 75.5909 12.4167 76.0227 12.375C76.5303 12.322 76.9394 12.2727 77.25 12.2273C77.5606 12.178 77.786 12.1061 77.9261 12.0114C78.0663 11.9167 78.1364 11.7765 78.1364 11.5909V11.5568C78.1364 11.197 78.0227 10.9186 77.7955 10.7216C77.572 10.5246 77.2538 10.4261 76.8409 10.4261C76.4053 10.4261 76.0587 10.5227 75.8011 10.7159C75.5436 10.9053 75.3731 11.1439 75.2898 11.4318L73.0511 11.25C73.1648 10.7197 73.3883 10.2614 73.7216 9.875C74.0549 9.48485 74.4848 9.18561 75.0114 8.97727C75.5417 8.76515 76.1553 8.65909 76.8523 8.65909C77.3371 8.65909 77.8011 8.71591 78.2443 8.82955C78.6913 8.94318 79.0871 9.11932 79.4318 9.35795C79.7803 9.59659 80.0549 9.90341 80.2557 10.2784C80.4564 10.6496 80.5568 11.0947 80.5568 11.6136V17.5H78.2614V16.2898H78.1932C78.053 16.5625 77.8655 16.803 77.6307 17.0114C77.3958 17.2159 77.1136 17.3769 76.7841 17.4943C76.4545 17.608 76.0739 17.6648 75.642 17.6648ZM76.3352 15.9943C76.6913 15.9943 77.0057 15.9242 77.2784 15.7841C77.5511 15.6402 77.7652 15.447 77.9205 15.2045C78.0758 14.9621 78.1534 14.6875 78.1534 14.3807V13.4545C78.0777 13.5038 77.9735 13.5492 77.8409 13.5909C77.7121 13.6288 77.5663 13.6648 77.4034 13.6989C77.2405 13.7292 77.0777 13.7576 76.9148 13.7841C76.7519 13.8068 76.6042 13.8277 76.4716 13.8466C76.1875 13.8883 75.9394 13.9545 75.7273 14.0455C75.5152 14.1364 75.3504 14.2595 75.233 14.4148C75.1155 14.5663 75.0568 14.7557 75.0568 14.983C75.0568 15.3125 75.1761 15.5644 75.4148 15.7386C75.6572 15.9091 75.964 15.9943 76.3352 15.9943ZM86.3778 17.6705C85.4839 17.6705 84.715 17.4811 84.071 17.1023C83.4309 16.7197 82.9384 16.1894 82.5938 15.5114C82.2528 14.8333 82.0824 14.053 82.0824 13.1705C82.0824 12.2765 82.2547 11.4924 82.5994 10.8182C82.9479 10.1402 83.4422 9.61174 84.0824 9.23295C84.7225 8.85038 85.4839 8.65909 86.3665 8.65909C87.1278 8.65909 87.7945 8.79735 88.3665 9.07386C88.9384 9.35038 89.3911 9.73864 89.7244 10.2386C90.0578 10.7386 90.2415 11.3258 90.2756 12H87.9915C87.9271 11.5644 87.7566 11.214 87.4801 10.9489C87.2074 10.6799 86.8494 10.5455 86.4062 10.5455C86.0312 10.5455 85.7036 10.6477 85.4233 10.8523C85.1468 11.053 84.9309 11.3466 84.7756 11.733C84.6203 12.1193 84.5426 12.5871 84.5426 13.1364C84.5426 13.6932 84.6184 14.1667 84.7699 14.5568C84.9252 14.947 85.143 15.2443 85.4233 15.4489C85.7036 15.6534 86.0312 15.7557 86.4062 15.7557C86.6828 15.7557 86.9309 15.6989 87.1506 15.5852C87.3741 15.4716 87.5578 15.3068 87.7017 15.0909C87.8494 14.8712 87.946 14.608 87.9915 14.3011H90.2756C90.2377 14.9678 90.0559 15.5549 89.7301 16.0625C89.4081 16.5663 88.9631 16.9602 88.3949 17.2443C87.8267 17.5284 87.1544 17.6705 86.3778 17.6705ZM91.8253 17.5V8.77273H94.2457V17.5H91.8253ZM93.0412 7.64773C92.6813 7.64773 92.3726 7.52841 92.1151 7.28977C91.8613 7.04735 91.7344 6.75758 91.7344 6.42045C91.7344 6.08712 91.8613 5.80114 92.1151 5.5625C92.3726 5.32008 92.6813 5.19886 93.0412 5.19886C93.401 5.19886 93.7079 5.32008 93.9616 5.5625C94.2192 5.80114 94.348 6.08712 94.348 6.42045C94.348 6.75758 94.2192 7.04735 93.9616 7.28977C93.7079 7.52841 93.401 7.64773 93.0412 7.64773ZM100.128 17.6705C99.2453 17.6705 98.482 17.483 97.8381 17.108C97.1979 16.7292 96.7036 16.2027 96.3551 15.5284C96.0066 14.8504 95.8324 14.0644 95.8324 13.1705C95.8324 12.2689 96.0066 11.4811 96.3551 10.8068C96.7036 10.1288 97.1979 9.60227 97.8381 9.22727C98.482 8.84848 99.2453 8.65909 100.128 8.65909C101.01 8.65909 101.772 8.84848 102.412 9.22727C103.056 9.60227 103.552 10.1288 103.901 10.8068C104.249 11.4811 104.423 12.2689 104.423 13.1705C104.423 14.0644 104.249 14.8504 103.901 15.5284C103.552 16.2027 103.056 16.7292 102.412 17.108C101.772 17.483 101.01 17.6705 100.128 17.6705ZM100.139 15.7955C100.541 15.7955 100.876 15.6818 101.145 15.4545C101.414 15.2235 101.616 14.9091 101.753 14.5114C101.893 14.1136 101.963 13.661 101.963 13.1534C101.963 12.6458 101.893 12.1932 101.753 11.7955C101.616 11.3977 101.414 11.0833 101.145 10.8523C100.876 10.6212 100.541 10.5057 100.139 10.5057C99.7339 10.5057 99.393 10.6212 99.1165 10.8523C98.8438 11.0833 98.6373 11.3977 98.4972 11.7955C98.3608 12.1932 98.2926 12.6458 98.2926 13.1534C98.2926 13.661 98.3608 14.1136 98.4972 14.5114C98.6373 14.9091 98.8438 15.2235 99.1165 15.4545C99.393 15.6818 99.7339 15.7955 100.139 15.7955ZM108.418 12.4545V17.5H105.997V8.77273H108.304V10.3125H108.406C108.599 9.80492 108.923 9.40341 109.378 9.10795C109.832 8.80871 110.384 8.65909 111.031 8.65909C111.637 8.65909 112.166 8.79167 112.616 9.05682C113.067 9.32197 113.418 9.70076 113.668 10.1932C113.918 10.6818 114.043 11.2652 114.043 11.9432V17.5H111.622V12.375C111.626 11.8409 111.49 11.4242 111.213 11.125C110.937 10.822 110.556 10.6705 110.071 10.6705C109.745 10.6705 109.457 10.7405 109.207 10.8807C108.961 11.0208 108.768 11.2254 108.628 11.4943C108.491 11.7595 108.421 12.0795 108.418 12.4545ZM119.928 17.6705C119.03 17.6705 118.257 17.4886 117.609 17.125C116.965 16.7576 116.469 16.2386 116.121 15.5682C115.772 14.8939 115.598 14.0966 115.598 13.1761C115.598 12.2784 115.772 11.4905 116.121 10.8125C116.469 10.1345 116.96 9.60606 117.592 9.22727C118.229 8.84848 118.975 8.65909 119.831 8.65909C120.407 8.65909 120.943 8.75189 121.439 8.9375C121.939 9.11932 122.375 9.39394 122.746 9.76136C123.121 10.1288 123.412 10.5909 123.621 11.1477C123.829 11.7008 123.933 12.3485 123.933 13.0909V13.7557H116.564V12.2557H121.655C121.655 11.9072 121.579 11.5985 121.428 11.3295C121.276 11.0606 121.066 10.8504 120.797 10.6989C120.532 10.5436 120.223 10.4659 119.871 10.4659C119.503 10.4659 119.178 10.5511 118.893 10.7216C118.613 10.8883 118.393 11.1136 118.234 11.3977C118.075 11.678 117.994 11.9905 117.99 12.3352V13.7614C117.99 14.1932 118.07 14.5663 118.229 14.8807C118.392 15.1951 118.621 15.4375 118.916 15.608C119.212 15.7784 119.562 15.8636 119.967 15.8636C120.236 15.8636 120.482 15.8258 120.706 15.75C120.929 15.6742 121.121 15.5606 121.28 15.4091C121.439 15.2576 121.56 15.072 121.643 14.8523L123.882 15C123.768 15.5379 123.536 16.0076 123.183 16.4091C122.835 16.8068 122.384 17.1174 121.831 17.3409C121.282 17.5606 120.647 17.6705 119.928 17.6705ZM132.774 11.2614L130.558 11.3977C130.52 11.2083 130.439 11.0379 130.314 10.8864C130.189 10.7311 130.024 10.608 129.82 10.517C129.619 10.4223 129.378 10.375 129.098 10.375C128.723 10.375 128.407 10.4545 128.149 10.6136C127.892 10.7689 127.763 10.9773 127.763 11.2386C127.763 11.447 127.846 11.6231 128.013 11.767C128.179 11.911 128.465 12.0265 128.871 12.1136L130.45 12.4318C131.299 12.6061 131.931 12.8864 132.348 13.2727C132.765 13.6591 132.973 14.1667 132.973 14.7955C132.973 15.3674 132.804 15.8693 132.467 16.3011C132.134 16.733 131.676 17.0701 131.092 17.3125C130.513 17.5511 129.844 17.6705 129.087 17.6705C127.931 17.6705 127.011 17.4299 126.325 16.9489C125.643 16.464 125.244 15.8049 125.126 14.9716L127.507 14.8466C127.579 15.1989 127.753 15.4678 128.03 15.6534C128.306 15.8352 128.661 15.9261 129.092 15.9261C129.517 15.9261 129.857 15.8447 130.115 15.6818C130.376 15.5152 130.509 15.3011 130.513 15.0398C130.509 14.8201 130.416 14.6402 130.234 14.5C130.053 14.3561 129.772 14.2462 129.393 14.1705L127.882 13.8693C127.03 13.6989 126.395 13.4034 125.979 12.983C125.566 12.5625 125.359 12.0265 125.359 11.375C125.359 10.8144 125.511 10.3314 125.814 9.92614C126.121 9.52083 126.551 9.20833 127.104 8.98864C127.661 8.76894 128.312 8.65909 129.058 8.65909C130.161 8.65909 131.028 8.89205 131.661 9.35795C132.297 9.82386 132.668 10.4583 132.774 11.2614Z" fill="white"/>
</svg>
